# xmcd
#
# Track frame offsets:
# 150
# 14827
# 32562
# 48604
# 63549
# 78372
# 94048
# 110543
#
# Disc length: 1613 seconds
#
#
# Revision: 0
# Processed by: cddbd v1.5.2PL0 Copyright (c) Steve Scherf et al.
# Submitted via: FreeRIP 2.945 
#
DISCID=66064b08
DTITLE=Júnior e Fernando - Tudo que Sonhei (Acustico)
DYEAR=2008
DGENRE=Other
TTITLE0=Mil Razões para Chorar
TTITLE1=Tudo que Sonhei
TTITLE2=Lembranças de Amor
TTITLE3=Blusa Vermelha
TTITLE4=Quem sabe o seu amor sou eu
TTITLE5=Você marcou demais
TTITLE6=Mulher Maravilhosa
TTITLE7=Hoje eu topo o que vier
EXTD=Contatos para Shows (62) 9107 - 7776 - 9266 - 8642
EXTT0=
EXTT1=
EXTT2=
EXTT3=
EXTT4=
EXTT5=
EXTT6=
EXTT7=
PLAYORDER=
